<svg width="689" height="142" viewBox="0 0 689 142" fill="none" xmlns="http://www.w3.org/2000/svg">
<path d="M668.256 37.5073C674.04 40.6942 678.702 45.0614 682.243 50.609C685.784 56.1566 687.732 62.4123 688.086 69.3763H688.175V110.895H668.256V106.291C662.709 109.36 656.601 110.895 649.932 110.895C643.322 110.895 637.243 109.36 631.696 106.291C625.676 102.927 620.836 98.2945 617.177 92.3928C613.577 86.4912 611.777 79.9403 611.777 72.7403V71.0583C611.777 63.7992 613.577 57.2189 617.177 51.3172C620.836 45.4155 625.676 40.8122 631.696 37.5073C637.243 34.3794 643.322 32.8154 649.932 32.8154C656.601 32.8154 662.709 34.3794 668.256 37.5073ZM668.256 74.3337V69.3763H668.168C667.696 64.891 665.925 61.1435 662.856 58.1336C659.315 54.5926 655.007 52.8221 649.932 52.8221C644.915 52.8221 640.607 54.5926 637.007 58.1336C633.466 61.6746 631.696 65.9828 631.696 71.0583V72.7403C631.696 77.7567 633.466 82.0649 637.007 85.6649C640.607 89.2059 644.915 90.9764 649.932 90.9764C655.007 90.9764 659.315 89.1764 662.856 85.5764C665.925 82.5665 667.696 78.819 668.168 74.3337H668.256Z" fill="#85D98D"/>
<path d="M585.877 34.4978C591.365 31.429 597.414 29.8945 604.024 29.8945C604.555 29.8945 605.086 29.8945 605.618 29.8945V49.7242C605.086 49.6651 604.555 49.6356 604.024 49.6356C599.008 49.6356 594.729 51.4061 591.188 54.9471C587.647 58.4881 585.877 62.7669 585.877 67.7833V69.4653V72.8292V79.3801V110.718H566.047V72.8292V69.4653V67.7833C566.047 60.5832 567.847 54.0619 571.447 48.2192C575.047 42.3766 579.857 37.8028 585.877 34.4978Z" fill="#85D98D"/>
<path d="M537.449 37.5073C543.41 40.6352 548.19 45.0319 551.79 50.6976C555.39 56.3041 557.19 62.5599 557.19 69.4649V74.2452C557.19 81.1502 555.39 87.4355 551.79 93.1011C548.19 98.7077 543.41 103.104 537.449 106.291C531.902 109.242 525.852 110.718 519.302 110.718C512.692 110.718 506.642 109.242 501.154 106.291C495.134 103.104 490.324 98.7077 486.724 93.1011C483.124 87.4355 481.324 81.1502 481.324 74.2452V69.4649C481.324 62.5599 483.124 56.3041 486.724 50.6976C490.324 45.0319 495.134 40.6352 501.154 37.5073C506.642 34.5565 512.692 33.0811 519.302 33.0811C525.852 33.0811 531.902 34.5565 537.449 37.5073ZM537.449 74.2452V69.4649C537.449 64.6845 535.679 60.5829 532.138 57.1599C528.597 53.7369 524.318 52.0254 519.302 52.0254C514.285 52.0254 510.006 53.7369 506.465 57.1599C502.924 60.5829 501.154 64.6845 501.154 69.4649V74.2452C501.154 79.0846 502.924 83.2158 506.465 86.6388C510.006 90.0027 514.285 91.6847 519.302 91.6847C524.318 91.6847 528.597 89.9732 532.138 86.5502C535.679 83.1863 537.449 79.0846 537.449 74.2452Z" fill="#85D98D"/>
<path d="M452.742 18.2979V38.1275H472.483V57.8686H452.742V72.7408C452.742 77.7572 454.512 82.0359 458.053 85.5769C461.594 89.1179 465.873 90.8884 470.889 90.8884C471.421 90.8884 471.952 90.8589 472.483 90.7999V110.63C471.952 110.689 471.421 110.718 470.889 110.718C464.28 110.718 458.23 109.184 452.742 106.115C446.722 102.81 441.912 98.236 438.312 92.3934C434.712 86.4917 432.912 79.9408 432.912 72.7408V71.0588V51.3177V18.2979H452.742Z" fill="#85D98D"/>
<path d="M348.191 56.2753C348.191 49.4294 350.611 43.5867 355.45 38.7473C360.29 33.908 366.132 31.4883 372.978 31.4883H424.057V51.3179H372.978C371.562 51.3179 370.382 51.79 369.437 52.7343C368.493 53.7376 368.021 54.9179 368.021 56.2753C368.021 57.6327 368.493 58.813 369.437 59.8163C370.382 60.7606 371.562 61.2327 372.978 61.2327H399.359C405.32 61.2327 410.513 63.0917 414.939 66.8098C419.425 70.5279 422.316 75.2492 423.615 80.9738C423.91 82.6263 424.057 84.2788 424.057 85.9312C424.057 92.7772 421.638 98.6198 416.798 103.459C412.018 108.299 406.205 110.718 399.359 110.718H348.191V90.8886H399.359C400.716 90.8886 401.867 90.4165 402.811 89.4722C403.815 88.4689 404.316 87.2886 404.316 85.9312C404.316 84.5738 403.815 83.423 402.811 82.4787C401.867 81.4755 400.716 80.9738 399.359 80.9738H372.978C366.132 80.9738 360.29 78.5541 355.45 73.7148C352.027 70.2918 349.785 66.1311 348.723 61.2327C348.368 59.5802 348.191 57.9278 348.191 56.2753Z" fill="#85D98D"/>
<path d="M314.893 86.64C316.251 85.3417 317.372 83.8662 318.257 82.2138H339.326C336.494 93.0138 330.149 101.099 320.293 106.47C314.746 109.42 308.638 110.896 301.969 110.896C295.359 110.896 289.28 109.42 283.733 106.47C280.723 104.876 277.978 102.929 275.5 100.627C271.014 96.4958 267.769 91.5384 265.762 85.7548C264.464 82.0957 263.814 78.2596 263.814 74.2465V69.4661C263.814 62.5612 265.614 56.2759 269.214 50.6103C272.874 44.9447 277.713 40.5184 283.733 37.3315C289.28 34.3807 295.359 32.9053 301.969 32.9053C308.638 32.9053 314.746 34.3807 320.293 37.3315C323.303 38.925 326.048 40.8725 328.526 43.1742C333.012 47.3054 336.258 52.2333 338.264 57.9579L320.293 70.1743L292.408 89.1187C295.241 90.8892 298.428 91.7745 301.969 91.7745C307.044 91.7745 311.352 90.063 314.893 86.64ZM283.733 69.4661V73.5383L311.618 54.5939C308.726 52.8234 305.51 51.9382 301.969 51.9382C296.952 51.9382 292.644 53.6497 289.044 57.0726C285.503 60.4956 283.733 64.6268 283.733 69.4661Z" fill="#85D98D"/>
<path d="M266.419 31.4736L234.273 99.4781C232.832 102.524 230.716 104.944 227.924 106.735C225.133 108.527 222.026 109.423 218.605 109.423C215.273 109.423 212.211 108.572 209.42 106.87C206.719 105.078 204.602 102.704 203.072 99.7469L169.439 31.4736H191.726L216.579 83.0818C217.029 83.8881 217.704 84.2913 218.605 84.2913C219.505 84.2913 220.135 83.8881 220.496 83.0818L244.268 31.4736H266.419Z" fill="#85D98D"/>
<path d="M98.9158 0C99.689 0 100.199 0.804494 99.8697 1.50388L82.2286 38.9424C81.4062 40.6869 80.1983 42.0722 78.6049 43.0983C77.0115 44.1245 75.2382 44.6376 73.285 44.6376C71.3832 44.6376 69.6356 44.1501 68.0422 43.1753C66.5002 42.1491 65.2923 40.7895 64.4185 39.0963L45.9667 1.51919C45.6226 0.818564 46.1326 0 46.9132 0H57.2787C57.6842 0 58.0538 0.232548 58.2293 0.598124L72.1285 29.5531C72.3855 30.0149 72.771 30.2458 73.285 30.2458C73.799 30.2458 74.1588 30.0149 74.3644 29.5531L87.6518 0.614444C87.8237 0.239998 88.198 0 88.6101 0H98.9158Z" fill="#85D98D"/>
<path d="M35.6444 5.34075C36.1264 4.73628 37.0735 4.83894 37.4149 5.53266L55.6865 42.6676C56.5376 44.3982 56.8675 46.2063 56.6763 48.0919C56.4852 49.9774 55.7807 51.6837 54.5629 53.2108C53.3771 54.6977 51.9064 55.7601 50.1508 56.3981C48.3871 56.9638 46.571 57.0605 44.7024 56.688L3.81887 47.6853C3.0566 47.5174 2.73459 46.6083 3.22125 45.9981L9.68405 37.894C9.93688 37.5769 10.3491 37.433 10.7444 37.5237L42.0483 44.71C42.5696 44.797 42.9905 44.6395 43.3109 44.2377C43.6314 43.8358 43.6752 43.4106 43.4424 42.9619L29.1018 14.5304C28.9162 14.1625 28.9619 13.7203 29.2188 13.3981L35.6444 5.34075Z" fill="#1F875D"/>
<path d="M0.370068 58.1404C0.198028 57.3866 0.868809 56.7101 1.624 56.8758L42.0494 65.7438C43.9331 66.1574 45.5525 67.0267 46.9074 68.3518C48.2624 69.6769 49.1572 71.2916 49.5919 73.1958C50.0151 75.0499 49.9287 76.8621 49.3329 78.6325C48.6756 80.3642 47.6188 81.8444 46.1626 83.073L13.6335 109.424C13.027 109.915 12.1154 109.6 11.9418 108.839L9.6352 98.7336C9.54497 98.3382 9.68945 97.9262 10.0068 97.6737L35.143 77.6799C35.536 77.3266 35.6753 76.8994 35.5609 76.3983C35.4466 75.8972 35.1414 75.5978 34.6455 75.5001L3.47559 68.9853C3.07227 68.901 2.755 68.5895 2.66332 68.1878L0.370068 58.1404Z" fill="#1F875D"/>
<path d="M19.6575 118.638C18.9609 118.303 18.8503 117.356 19.4506 116.869L51.5887 90.7925C53.0865 89.5777 54.7759 88.8536 56.6567 88.6204C58.5375 88.3873 60.3578 88.6944 62.1176 89.5419C63.8311 90.367 65.1941 91.5644 66.2067 93.1341C67.1508 94.7276 67.6491 96.4767 67.7018 98.3813L68.0222 140.243C68.0282 141.024 67.2135 141.54 66.5103 141.201L57.1713 136.704C56.8059 136.528 56.5738 136.158 56.5744 135.752L56.6147 103.634C56.5835 103.107 56.3364 102.731 55.8733 102.508C55.4102 102.285 54.9858 102.337 54.6002 102.664L30.0726 122.972C29.7553 123.235 29.3139 123.288 28.9427 123.11L19.6575 118.638Z" fill="#1F875D"/>
<path d="M78.9817 141.279C78.2852 141.614 77.4764 141.111 77.4698 140.338L77.12 98.9526C77.104 97.0241 77.5912 95.2519 78.5816 93.636C79.572 92.0202 80.947 90.7885 82.7068 89.941C84.4203 89.1159 86.2063 88.7968 88.0648 88.9837C89.8994 89.2392 91.5776 89.9401 93.0995 91.0865L126.028 116.936C126.642 117.418 126.538 118.377 125.835 118.716L116.496 123.213C116.13 123.389 115.696 123.34 115.38 123.087L90.2937 103.03C89.8618 102.725 89.4143 102.685 88.9512 102.908C88.4881 103.131 88.2641 103.495 88.2792 104L88.8637 135.838C88.8712 136.25 88.6381 136.629 88.2669 136.807L78.9817 141.279Z" fill="#1F875D"/>
<path d="M133.671 109.012C133.499 109.766 132.601 110.084 131.992 109.607L99.4181 84.0776C97.9003 82.8876 96.8186 81.4018 96.1727 79.62C95.5268 77.8382 95.4212 75.9952 95.8558 74.091C96.279 72.2369 97.1431 70.6415 98.4481 69.305C99.7916 68.03 101.386 67.155 103.231 66.6798L143.972 57.0523C144.732 56.8728 145.416 57.5521 145.243 58.3131L142.936 68.4188C142.846 68.8141 142.537 69.1227 142.141 69.2124L110.819 76.3201C110.312 76.4679 110.001 76.7923 109.887 77.2934C109.772 77.7945 109.917 78.1967 110.322 78.4999L135.578 97.8936C135.905 98.1446 136.056 98.5629 135.964 98.9646L133.671 109.012Z" fill="#1F875D"/>
<path d="M142.541 46.1378C143.023 46.7422 142.712 47.6428 141.96 47.8212L101.69 57.3713C99.8135 57.816 97.9773 57.7354 96.1816 57.1294C94.3858 56.5234 92.8791 55.4569 91.6613 53.9298C90.4755 52.443 89.767 50.7727 89.5357 48.9192C89.3765 47.0738 89.6864 45.2817 90.4654 43.5429L108.34 5.68766C108.673 4.98185 109.631 4.8702 110.118 5.48045L116.581 13.5845C116.833 13.9016 116.882 14.3355 116.706 14.7007L102.734 43.6207C102.533 44.1095 102.593 44.5549 102.913 44.9567C103.234 45.3586 103.639 45.4959 104.128 45.3688L135.037 37.7143C135.437 37.6153 135.858 37.7583 136.115 38.0804L142.541 46.1378Z" fill="#1F875D"/>
</svg>
